<?xml version="1.0" encoding="utf-8"?>
<!-- Generator: Adobe Illustrator 25.1.0, SVG Export Plug-In . SVG Version: 6.00 Build 0)  -->
<svg version="1.1" id="Layer_1" xmlns="http://www.w3.org/2000/svg" xmlns:xlink="http://www.w3.org/1999/xlink" x="0px" y="0px"
	 viewBox="0 0 292 124" style="enable-background:new 0 0 292 124;" xml:space="preserve">
<style type="text/css">
	.st0{fill:#631DC2;}
</style>
<g id="Artwork">
	<path id="Logo" class="st0" d="M104.5,67.5c0,0.5,0,1.1-0.1,1.6c-0.1,1.3-1.2,2.4-2.5,2.4H67c1.4,6,6.3,10.2,13.6,10.2
		c3.7,0,7.7-1.2,10.6-3.8c0.9-0.8,2.3-0.9,3.3-0.1c0,0,3.5,2.9,4.8,3.8c1.1,0.8,1.4,2.5,0.3,3.7C95,90.2,88,93.1,80.7,93.1
		c-14.7,0-26-11-26-25.3c0-13.9,9.8-25.9,25.3-25.9C94.3,41.9,104.5,53.7,104.5,67.5 M91.2,62.2c-0.9-4.8-5.4-9.3-11.4-9.3
		c-5.7,0-10.4,4.1-12.3,9.2c-0.1,0.2,0.1,0.3,0.2,0.3H91C91.1,62.4,91.2,62.3,91.2,62.2 M154.7,79.6c-1.6-1-6.4-3.8-6.4-3.8
		c-0.9-0.5-2.2-0.5-3,0.4c-4.1,4.1-7.3,4.8-10.3,4.8c-7.4,0-13.5-6.2-13.5-13.5c0-7.2,6.1-13.4,13.5-13.4c3.9,0,7,1.5,9.8,4.2
		c0.8,0.8,2.1,1.1,3.2,0.4l6.4-3.7c1.7-1,1.5-2.9,0.7-3.8c-4.6-5.4-11.5-9.3-20.1-9.3c-14.4,0-25.9,11.4-25.9,25.6
		c0,14.1,11.5,25.6,25.9,25.6c8.7,0,16-4.2,20.4-9.7C156.4,82.1,155.9,80.3,154.7,79.6 M187.8,42.9H179v-9.4c0-1.4-1.1-2.5-2.5-2.5
		h-7.8c-1.4,0-2.5,1.1-2.5,2.5v9.4h-4.2c-1.4,0-2.5,1.1-2.5,2.5v6.5c0,1.4,1.1,2.5,2.5,2.5h4.2v22c0,10.7,6.2,16.4,14.5,16.4
		c3.8,0,6.1-0.2,7.7-0.5c1.3-0.2,2.1-1.4,2.1-2.5v-7c0-1-0.9-2.3-2.5-2.1c-1,0.1-1.6,0.2-3.4,0.2c-4.5,0-5.4-2.6-5.4-6.5v-20h8.8
		c1.4,0,2.5-1.1,2.5-2.5v-6.5C190.4,44.1,189.2,42.9,187.8,42.9 M284.9,41.9c-7.8,0.1-11.5,1.3-15.6,2.3c0,0-9-1.5-10.4-1.7
		c-1.4-0.2-2.9,0.8-2.9,2.5v44.3c0,1.4,1.1,2.5,2.5,2.5h2.6l0,0h3.8l0,0h1.2c1.4,0,2.5-1.1,2.5-2.5V65.4c0-7.9,2.3-11.1,16.4-11.5
		c1,0,2.5-1,2.5-2.5v-7C287.4,43,286.3,41.9,284.9,41.9 M49.4,63.8c0-15.3-9.1-21.4-19.8-21.8c-9.2-0.3-13.7,2.3-13.7,2.3
		s-5.4-1.3-9-1.8C5.3,42.2,4,43.4,4,45v44.4c0,1.4,1.1,2.5,2.5,2.5h7.6c1.4,0,2.5-1.1,2.5-2.5V65.1c0-9.3,5-11.3,10.1-11.3
		c5,0,10.1,2,10.1,11.5v24.1c0,1.4,1.1,2.5,2.5,2.5h7.6c1.4,0,2.5-1.1,2.5-2.5L49.4,63.8 M250.8,88.3c0,0-2.4-5.3-3.9-11.2
		c-1.1-4.3-1.6-9-1.6-18V45.5c0-1.4-1.1-2.5-2.5-2.5h-7.6c-1.4,0-2.5,1.2-2.5,2.5c0,0,0,0.3,0,0.3c0,0.1-0.1,0.1-0.1,0.1
		c-4.6-3-8.5-3.9-13.4-3.9c-14.4,0-25.9,11.4-25.9,25.6c0,14.1,11.5,25.6,25.9,25.6c7.9,0,12.1-2.2,15.9-5.4
		c0.9-0.7,1.5-0.6,2.1,0.1c2.3,2.7,2.3,4.2,5.7,4.2c3.2,0,4,0,5.7,0C250.3,91.9,251.7,90.1,250.8,88.3z M219.6,81.5
		c-7.7,0-14-6.4-14-14c0-7.5,6.3-13.9,14-13.9c7.8,0,14.1,6.4,14.1,13.9C233.7,75.1,227.4,81.5,219.6,81.5z"/>
</g>
</svg>
